<svg xmlns="http://www.w3.org/2000/svg" width="1200" height="700" viewBox="0 0 1200 700">
  <defs>
    <linearGradient id="bg" x1="0" y1="0" x2="1" y2="1">
      <stop offset="0%" stop-color="#0f120f"/>
      <stop offset="100%" stop-color="#171a16"/>
    </linearGradient>
  </defs>
  <rect width="100%" height="100%" fill="url(#bg)"/>
  <circle cx="180" cy="120" r="140" fill="#198f70" opacity="0.12"/>
  <circle cx="1030" cy="150" r="190" fill="#b4861f" opacity="0.10"/>
  <rect x="95" y="80" width="1010" height="540" rx="28" fill="#fff8ea" opacity="0.05" stroke="#fff8ea" stroke-opacity="0.10"/>
  <text x="125" y="160" fill="#fff8ea" font-family="Inter, Arial, sans-serif" font-size="34" font-weight="700">Eco Connect</text>
  <text x="125" y="193" fill="#cfe7ff" font-family="Inter, Arial, sans-serif" font-size="16">Sustainability prototype • notebook experiments • impact mapping</text>

  <rect x="125" y="245" width="310" height="320" rx="22" fill="#fff8ea" opacity="0.06"/>
  <rect x="465" y="245" width="580" height="155" rx="22" fill="#fff8ea" opacity="0.05"/>
  <rect x="465" y="420" width="280" height="145" rx="22" fill="#fff8ea" opacity="0.05"/>
  <rect x="765" y="420" width="280" height="145" rx="22" fill="#fff8ea" opacity="0.05"/>

  <rect x="155" y="285" width="220" height="14" rx="7" fill="#fff8ea" opacity="0.7"/>
  <rect x="155" y="324" width="260" height="12" rx="6" fill="#fff8ea" opacity="0.2"/>
  <rect x="155" y="350" width="210" height="12" rx="6" fill="#fff8ea" opacity="0.16"/>
  <rect x="155" y="445" width="250" height="56" rx="16" fill="#198f70" opacity="0.18"/>
  <text x="155" y="480" fill="#fff8ea" font-family="Inter, Arial, sans-serif" font-size="17" font-weight="700">Sustainability dashboard</text>

  <path d="M500 350 C560 300, 600 300, 660 350 S780 400, 840 320 S960 280, 1010 360" fill="none" stroke="#57caa8" stroke-width="4" stroke-linecap="round" opacity="0.8"/>
  <circle cx="560" cy="325" r="8" fill="#57caa8"/>
  <circle cx="700" cy="345" r="8" fill="#e0b654"/>
  <circle cx="855" cy="330" r="8" fill="#1b78d8"/>
</svg>