<svg xmlns="http://www.w3.org/2000/svg" width="1200" height="700" viewBox="0 0 1200 700">
  <defs>
    <linearGradient id="bg" x1="0" y1="0" x2="1" y2="1">
      <stop offset="0%" stop-color="#0d0f0f"/>
      <stop offset="100%" stop-color="#11100d"/>
    </linearGradient>
  </defs>
  <rect width="100%" height="100%" fill="url(#bg)"/>
  <circle cx="180" cy="150" r="150" fill="#f45f43" opacity="0.10"/>
  <circle cx="1030" cy="150" r="180" fill="#69aef4" opacity="0.10"/>
  <rect x="90" y="70" width="1020" height="560" rx="28" fill="#fff8ea" opacity="0.06" stroke="#fff8ea" stroke-opacity="0.12"/>
  <text x="125" y="155" fill="#fff8ea" font-family="Inter, Arial, sans-serif" font-size="34" font-weight="700">GitHub Profile README</text>
  <text x="125" y="188" fill="#cfe7ff" font-family="Inter, Arial, sans-serif" font-size="16">Profile banner • skill stack • links • analytics • curated intro</text>

  <rect x="125" y="235" width="1040" height="110" rx="22" fill="#fff8ea" opacity="0.05"/>
  <rect x="125" y="370" width="310" height="225" rx="22" fill="#fff8ea" opacity="0.05"/>
  <rect x="460" y="370" width="310" height="225" rx="22" fill="#fff8ea" opacity="0.05"/>
  <rect x="795" y="370" width="370" height="225" rx="22" fill="#fff8ea" opacity="0.05"/>

  <rect x="155" y="270" width="220" height="14" rx="7" fill="#fff8ea" opacity="0.7"/>
  <rect x="155" y="300" width="390" height="12" rx="6" fill="#fff8ea" opacity="0.22"/>
  <rect x="155" y="400" width="250" height="14" rx="7" fill="#fff8ea" opacity="0.65"/>
  <rect x="155" y="432" width="180" height="12" rx="6" fill="#fff8ea" opacity="0.18"/>
  <rect x="490" y="400" width="250" height="14" rx="7" fill="#fff8ea" opacity="0.65"/>
  <rect x="490" y="432" width="180" height="12" rx="6" fill="#fff8ea" opacity="0.18"/>
  <rect x="825" y="400" width="300" height="14" rx="7" fill="#fff8ea" opacity="0.65"/>
  <rect x="825" y="432" width="240" height="12" rx="6" fill="#fff8ea" opacity="0.18"/>
</svg>