<svg xmlns="http://www.w3.org/2000/svg" width="1200" height="700" viewBox="0 0 1200 700">
  <defs>
    <linearGradient id="bg" x1="0" y1="0" x2="1" y2="1">
      <stop offset="0%" stop-color="#0d0f0f"/>
      <stop offset="100%" stop-color="#1b1813"/>
    </linearGradient>
  </defs>
  <rect width="100%" height="100%" fill="url(#bg)"/>
  <circle cx="220" cy="130" r="160" fill="#1b78d8" opacity="0.12"/>
  <circle cx="1000" cy="120" r="180" fill="#f45f43" opacity="0.12"/>
  <rect x="90" y="80" width="1020" height="540" rx="28" fill="#fff8ea" opacity="0.06" stroke="#fff8ea" stroke-opacity="0.12"/>
  <text x="130" y="165" fill="#fff8ea" font-family="Inter, Arial, sans-serif" font-size="34" font-weight="700">KYC Blockchain API</text>
  <text x="130" y="198" fill="#cfe7ff" font-family="Inter, Arial, sans-serif" font-size="16">OCR pipeline • Face matching • Verification hashes • MongoDB</text>

  <rect x="130" y="250" width="260" height="300" rx="22" fill="#fff8ea" opacity="0.06"/>
  <rect x="420" y="250" width="650" height="140" rx="22" fill="#fff8ea" opacity="0.05"/>
  <rect x="420" y="412" width="310" height="138" rx="22" fill="#fff8ea" opacity="0.05"/>
  <rect x="760" y="412" width="310" height="138" rx="22" fill="#fff8ea" opacity="0.05"/>

  <rect x="160" y="290" width="200" height="16" rx="8" fill="#fff8ea" opacity="0.7"/>
  <rect x="160" y="330" width="160" height="12" rx="6" fill="#fff8ea" opacity="0.24"/>
  <rect x="160" y="356" width="180" height="12" rx="6" fill="#fff8ea" opacity="0.18"/>
  <rect x="160" y="420" width="190" height="62" rx="14" fill="#1b78d8" opacity="0.18"/>
  <text x="160" y="454" fill="#fff8ea" font-family="Inter, Arial, sans-serif" font-size="17" font-weight="700">Aadhaar / PAN upload</text>

  <rect x="450" y="285" width="590" height="30" rx="15" fill="#fff8ea" opacity="0.12"/>
  <rect x="450" y="330" width="420" height="14" rx="7" fill="#fff8ea" opacity="0.18"/>
  <rect x="450" y="356" width="500" height="14" rx="7" fill="#fff8ea" opacity="0.12"/>
  <rect x="450" y="444" width="250" height="56" rx="16" fill="#198f70" opacity="0.20"/>
  <text x="478" y="478" fill="#fff8ea" font-family="Inter, Arial, sans-serif" font-size="17" font-weight="700">Blockchain hash stored</text>
</svg>