<svg xmlns="http://www.w3.org/2000/svg" width="1200" height="700" viewBox="0 0 1200 700">
  <defs>
    <linearGradient id="bg" x1="0" y1="0" x2="1" y2="1">
      <stop offset="0%" stop-color="#0d0f0f"/>
      <stop offset="100%" stop-color="#171512"/>
    </linearGradient>
    <linearGradient id="panel" x1="0" y1="0" x2="1" y2="1">
      <stop offset="0%" stop-color="#fff8ea" stop-opacity="0.08"/>
      <stop offset="100%" stop-color="#fff8ea" stop-opacity="0.02"/>
    </linearGradient>
  </defs>
  <rect width="100%" height="100%" fill="url(#bg)"/>
  <circle cx="160" cy="110" r="180" fill="#f45f43" opacity="0.10"/>
  <circle cx="1040" cy="110" r="210" fill="#1b78d8" opacity="0.10"/>
  <circle cx="920" cy="550" r="260" fill="#198f70" opacity="0.10"/>

  <rect x="70" y="60" width="1060" height="580" rx="28" fill="url(#panel)" stroke="#fff8ea" stroke-opacity="0.12"/>
  <rect x="100" y="92" width="1000" height="40" rx="12" fill="#fff8ea" opacity="0.06"/>
  <circle cx="128" cy="112" r="7" fill="#f45f43"/>
  <circle cx="152" cy="112" r="7" fill="#e0b654"/>
  <circle cx="176" cy="112" r="7" fill="#198f70"/>

  <text x="100" y="175" fill="#fff8ea" font-family="Inter, Arial, sans-serif" font-size="34" font-weight="700">MediSync Hospital Dashboard</text>
  <text x="100" y="208" fill="#cfe7ff" font-family="Inter, Arial, sans-serif" font-size="16">Beds • Doctors • Ambulance • Emergency maps • Live visibility</text>

  <rect x="100" y="245" width="240" height="156" rx="18" fill="#fff8ea" opacity="0.06"/>
  <rect x="370" y="245" width="240" height="156" rx="18" fill="#fff8ea" opacity="0.06"/>
  <rect x="640" y="245" width="240" height="156" rx="18" fill="#fff8ea" opacity="0.06"/>
  <rect x="910" y="245" width="160" height="156" rx="18" fill="#fff8ea" opacity="0.06"/>

  <rect x="100" y="430" width="970" height="145" rx="18" fill="#fff8ea" opacity="0.05"/>
  <rect x="128" y="462" width="180" height="14" rx="7" fill="#fff8ea" opacity="0.7"/>
  <rect x="128" y="492" width="510" height="12" rx="6" fill="#fff8ea" opacity="0.22"/>
  <rect x="128" y="518" width="430" height="12" rx="6" fill="#fff8ea" opacity="0.16"/>
  <rect x="690" y="458" width="340" height="86" rx="14" fill="#1b78d8" opacity="0.18"/>
  <text x="720" y="508" fill="#fff8ea" font-family="Inter, Arial, sans-serif" font-size="18" font-weight="700">Realtime triage view</text>
</svg>